HIERARCHY
ROOT Hips
{
	OFFSET -0.001795 -0.223333 0.028219
	CHANNELS 6 Xposition Yposition Zposition Zrotation Yrotation Xrotation 
	JOINT LeftUpLeg
	{
		OFFSET 0.069520 -0.091406 -0.006815
		CHANNELS 3 Zrotation Yrotation Xrotation
		JOINT LeftLeg
		{
			OFFSET 0.034277 -0.375199 -0.004496
			CHANNELS 3 Zrotation Yrotation Xrotation
			JOINT LeftFoot
			{
				OFFSET -0.013596 -0.397961 -0.043693
				CHANNELS 3 Zrotation Yrotation Xrotation
				JOINT LeftToe
				{
					OFFSET 0.026358 -0.055791 0.119288
					CHANNELS 3 Zrotation Yrotation Xrotation
					End Site
					{
						OFFSET 0.000000 0.000000 0.000000
					}
				}
			}
		}
	}
	JOINT RightUpLeg
	{
		OFFSET -0.067670 -0.090522 -0.004320
		CHANNELS 3 Zrotation Yrotation Xrotation
		JOINT RightLeg
		{
			OFFSET -0.038290 -0.382569 -0.008850
			CHANNELS 3 Zrotation Yrotation Xrotation
			JOINT RightFoot
			{
				OFFSET 0.015774 -0.398415 -0.042312
				CHANNELS 3 Zrotation Yrotation Xrotation
				JOINT RightToe
				{
					OFFSET -0.025372 -0.048144 0.123348
					CHANNELS 3 Zrotation Yrotation Xrotation
					End Site
					{
						OFFSET 0.000000 0.000000 0.000000
					}
				}
			}
		}
	}
	JOINT Spine
	{
		OFFSET -0.002533 0.108963 -0.026696
		CHANNELS 3 Zrotation Yrotation Xrotation
		JOINT Spine1
		{
			OFFSET 0.005487 0.135180 0.001092
			CHANNELS 3 Zrotation Yrotation Xrotation
			JOINT Spine2
			{
				OFFSET 0.001457 0.052922 0.025425
				CHANNELS 3 Zrotation Yrotation Xrotation
				JOINT Neck
				{
					OFFSET -0.002778 0.213870 -0.042857
					CHANNELS 3 Zrotation Yrotation Xrotation
					JOINT Head
					{
						OFFSET 0.005152 0.064970 0.051349
						CHANNELS 3 Zrotation Yrotation Xrotation
						End Site
						{
							OFFSET 0.000000 0.000000 0.000000
						}
					}
				}
				JOINT LeftShoulder
				{
					OFFSET 0.078845 0.121749 -0.034090
					CHANNELS 3 Zrotation Yrotation Xrotation
					JOINT LeftArm
					{
						OFFSET 0.090977 0.030469 -0.008868
						CHANNELS 3 Zrotation Yrotation Xrotation
						JOINT LeftForeArm
						{
							OFFSET 0.259612 -0.012772 -0.027456
							CHANNELS 3 Zrotation Yrotation Xrotation
							JOINT LeftHand
							{
								OFFSET 0.249234 0.008986 -0.001171
								CHANNELS 3 Zrotation Yrotation Xrotation
								End Site
								{
									OFFSET 0.000000 0.000000 0.000000
								}
							}
						}
					}
				}
				JOINT RightShoulder
				{
					OFFSET -0.081759 0.118833 -0.038615
					CHANNELS 3 Zrotation Yrotation Xrotation
					JOINT RightArm
					{
						OFFSET -0.096012 0.032551 -0.009143
						CHANNELS 3 Zrotation Yrotation Xrotation
						JOINT RightForeArm
						{
							OFFSET -0.253742 -0.013329 -0.021401
							CHANNELS 3 Zrotation Yrotation Xrotation
							JOINT RightHand
							{
								OFFSET -0.255298 0.007772 -0.005559
								CHANNELS 3 Zrotation Yrotation Xrotation
								End Site
								{
									OFFSET 0.000000 0.000000 0.000000
								}
							}
						}
					}
				}
			}
		}
	}
}
MOTION
Frames: 17
Frame Time: 0.050000
-0.014396 0.949259 -0.043919 0.203984 2.081536 8.802937 -0.046040 -0.450477 -4.961606 1.187050 0.108867 -5.228993 1.973155 8.854868 15.076507 0.000000 0.000000 0.000000 -1.473604 0.626444 -6.543174 -0.775874 0.054864 -0.606771 -7.125641 -18.035847 12.560407 0.000000 0.000000 0.000000 6.653044 -0.205544 -0.434378 -3.149872 1.317174 -29.577142 0.175121 13.514264 27.143271 8.197028 -0.097320 -30.175140 0.000000 0.000000 0.000000 -14.946375 2.815299 -5.329911 -68.109826 3.768143 -13.810519 -3.614373 -36.297848 1.807812 0.000000 0.000000 0.000000 23.343115 -14.344109 -6.346391 68.306819 -3.681611 -10.172778 8.340200 49.567045 9.750812 0.000000 0.000000 0.000000 
-0.015017 0.949419 -0.045596 0.331392 2.515012 9.041117 -0.050427 -0.472156 -5.203305 1.100954 0.127438 -5.542660 1.696446 8.538471 15.244289 0.000000 0.000000 0.000000 -1.549895 0.639447 -6.722307 -0.737797 0.040978 -0.840547 -7.335891 -18.371397 12.769535 0.000000 0.000000 0.000000 6.679325 -0.187601 -0.695655 -3.457444 1.374287 -29.435082 0.008263 13.196948 27.031120 8.158671 -0.104172 -30.020619 0.000000 0.000000 0.000000 -15.802420 2.102167 -5.229206 -67.478103 3.973131 -13.625013 -4.624092 -37.811257 2.209783 0.000000 0.000000 0.000000 23.695787 -13.641982 -5.899236 68.373674 -3.249602 -10.012213 6.760654 50.444280 9.251538 0.000000 0.000000 0.000000 
-0.015605 0.949840 -0.047253 0.439445 2.752812 8.939155 -0.091707 -0.461723 -5.090526 1.065485 0.139285 -5.782158 1.505468 8.338615 15.456904 0.000000 0.000000 0.000000 -1.752548 0.625592 -6.622947 -0.475229 0.010148 -0.954809 -7.432628 -18.521409 12.931529 0.000000 0.000000 0.000000 6.804327 -0.213890 -0.455633 -3.630848 1.406964 -29.298784 -0.126034 13.212649 26.921059 8.258370 -0.130454 -29.992383 0.000000 0.000000 0.000000 -16.264963 1.493155 -5.112248 -67.268740 4.263738 -13.657822 -5.620178 -40.514942 2.676727 0.000000 0.000000 0.000000 23.921490 -12.937449 -5.378845 68.044234 -2.558960 -9.657092 5.873688 51.775407 9.208169 0.000000 0.000000 0.000000 
-0.016200 0.950514 -0.048954 0.433570 3.083995 8.378492 0.050383 -0.424414 -4.702923 0.933747 0.140382 -5.647950 1.292588 8.087394 15.545380 0.000000 0.000000 0.000000 -1.908607 0.571850 -6.039307 -0.040419 -0.036154 -1.034051 -7.534575 -18.668666 13.142866 0.000000 0.000000 0.000000 6.989760 -0.255997 0.004165 -3.861770 1.461406 -28.798276 -0.312994 13.191641 26.811395 8.345254 -0.091435 -30.411258 0.000000 0.000000 0.000000 -16.221858 0.498644 -4.650989 -67.328404 4.053768 -13.555423 -7.315391 -44.456413 3.572377 0.000000 0.000000 0.000000 23.930786 -12.203147 -4.830620 68.011577 -1.898100 -9.310427 5.682085 53.301253 9.540938 0.000000 0.000000 0.000000 
-0.016889 0.951614 -0.050673 0.299857 3.193374 8.023861 0.359396 -0.415707 -4.628018 0.734233 0.138677 -5.337162 1.197899 8.014269 15.754435 0.000000 0.000000 0.000000 -1.983163 0.556565 -5.886766 0.449841 -0.078185 -0.828443 -7.526709 -18.642988 13.433985 0.000000 0.000000 0.000000 7.110820 -0.280908 0.275845 -3.991534 1.492923 -28.519666 -0.344537 13.188932 26.783775 8.468685 -0.103656 -30.727780 0.000000 0.000000 0.000000 -15.789648 0.325060 -4.460684 -67.071375 3.641442 -13.296175 -9.473403 -49.447670 4.913074 0.000000 0.000000 0.000000 23.751217 -11.821168 -4.538601 67.451862 -1.411829 -9.018868 6.145493 55.137645 10.290644 0.000000 0.000000 0.000000 
-0.017644 0.952682 -0.052462 0.175607 3.239430 7.805418 0.582702 -0.413218 -4.616405 0.665572 0.136200 -5.175014 1.125441 7.983313 16.024680 0.000000 0.000000 0.000000 -2.031798 0.542256 -5.729035 0.864119 -0.123700 -0.921291 -7.476825 -18.549938 13.771483 0.000000 0.000000 0.000000 7.214173 -0.291533 0.381693 -4.073528 1.518115 -28.110485 -0.423688 13.295610 26.664193 8.666402 -0.204790 -30.598529 0.000000 0.000000 0.000000 -15.524353 -0.040424 -4.230703 -66.730396 2.521204 -12.598611 -11.240524 -55.350572 6.401850 0.000000 0.000000 0.000000 24.052726 -11.562392 -4.331603 66.817057 -0.868409 -8.753207 6.787064 58.674853 11.671144 0.000000 0.000000 0.000000 
-0.018437 0.953512 -0.054225 0.093909 3.880989 7.938255 0.892298 -0.429858 -4.833201 0.469845 0.155029 -5.409666 0.729971 7.561496 16.292491 0.000000 0.000000 0.000000 -2.140398 0.532822 -5.653950 1.419245 -0.195218 -1.415409 -7.717953 -18.897532 14.314822 0.000000 0.000000 0.000000 7.173236 -0.252864 -0.035222 -4.025655 1.518271 -27.839420 -0.518544 12.899766 26.681521 8.504441 -0.150321 -30.347258 0.000000 0.000000 0.000000 -15.118525 -0.033724 -4.122976 -66.704178 1.318341 -11.969529 -13.653585 -61.692620 8.644968 0.000000 0.000000 0.000000 23.958393 -11.418439 -4.221747 66.416942 -0.808293 -8.713079 8.470095 62.347356 13.798177 0.000000 0.000000 0.000000 
-0.019292 0.953871 -0.056045 0.114192 4.170591 7.727487 1.316117 -0.419552 -4.736917 -0.185911 0.189776 -5.452224 0.532494 7.344415 16.426780 0.000000 0.000000 0.000000 -2.523770 0.487881 -5.181281 2.206436 -0.287126 -2.009250 -7.780727 -18.972198 14.558072 0.000000 0.000000 0.000000 7.255685 -0.237238 -0.185956 -4.318786 1.588559 -27.444487 -0.701298 12.760709 26.686475 8.484928 -0.132959 -30.356439 0.000000 0.000000 0.000000 -14.176216 -1.393999 -3.218904 -66.353278 -1.391202 -10.456416 -10.017145 -68.701366 7.308358 0.000000 0.000000 0.000000 23.680168 -10.610647 -3.646989 66.936700 0.325404 -8.120082 7.233781 65.501902 14.152074 0.000000 0.000000 0.000000 
-0.020264 0.954426 -0.057883 0.094367 4.299821 7.483715 1.422420 -0.415880 -4.703421 -0.219167 0.186618 -5.292888 0.434675 7.258472 16.564412 0.000000 0.000000 0.000000 -2.568764 0.485102 -5.181662 2.447417 -0.306283 -1.738036 -7.826420 -19.035776 14.673335 0.000000 0.000000 0.000000 7.236950 -0.254915 0.044154 -4.489246 1.627153 -27.344417 -0.879533 12.719141 26.258092 8.706389 -0.205859 -30.586464 0.000000 0.000000 0.000000 -13.328477 -2.348968 -2.575466 -66.254113 -3.944198 -9.023399 -1.282967 -75.447055 1.367791 0.000000 0.000000 0.000000 23.369166 -10.362021 -3.469760 67.234476 0.305397 -8.060425 11.040451 68.677544 17.820368 0.000000 0.000000 0.000000 
-0.021211 0.954825 -0.059716 -0.052212 4.902429 7.213609 1.482881 -0.414670 -4.697955 0.137130 0.162717 -5.152024 0.127205 6.892870 16.550203 0.000000 0.000000 0.000000 -2.630721 0.474434 -5.106058 3.051128 -0.367371 -1.478487 -8.086747 -19.418349 14.922665 0.000000 0.000000 0.000000 7.137256 -0.273023 0.289631 -4.626276 1.668162 -26.988579 -0.885394 12.173060 25.563840 8.687463 -0.202509 -30.703640 0.000000 0.000000 0.000000 -12.741628 -3.244599 -2.001351 -66.299047 -6.702210 -7.436277 26.040335 -80.888558 -21.918432 0.000000 0.000000 0.000000 23.265041 -9.913107 -3.219091 67.334325 0.766620 -7.762420 14.296638 71.776386 21.353570 0.000000 0.000000 0.000000 
-0.022079 0.955372 -0.061396 -0.145401 5.335885 7.058996 1.503327 -0.392100 -4.418383 0.421089 0.164388 -5.662521 -0.167110 6.597322 16.788572 0.000000 0.000000 0.000000 -2.702576 0.462727 -5.003880 3.522170 -0.420078 -1.504937 -8.253581 -19.649052 15.223750 0.000000 0.000000 0.000000 6.783937 -0.263715 0.351967 -4.459220 1.644752 -26.789625 -0.814050 12.103506 25.410791 8.423189 -0.022412 -30.768330 0.000000 0.000000 0.000000 -12.077872 -3.519654 -1.761123 -66.351768 -9.101314 -6.156548 62.292584 -82.694181 -55.697569 0.000000 0.000000 0.000000 23.093157 -9.447102 -2.865253 67.108817 0.903628 -7.653422 18.988435 75.322207 26.633954 0.000000 0.000000 0.000000 
-0.022950 0.955618 -0.063023 -0.164569 5.715454 7.184641 1.426412 -0.405149 -4.574871 0.732334 0.158321 -5.918961 -0.396408 6.369295 16.947861 0.000000 0.000000 0.000000 -2.771366 0.440416 -4.724628 3.835109 -0.460966 -2.380394 -8.371768 -19.796324 15.585727 0.000000 0.000000 0.000000 6.541525 -0.246716 0.230786 -4.416093 1.642956 -26.591665 -0.730695 11.985477 25.160894 8.412250 -0.055177 -30.324877 0.000000 0.000000 0.000000 -11.423688 -3.774823 -1.513644 -66.063550 -11.427742 -4.853486 96.605796 -80.820365 -87.135699 0.000000 0.000000 0.000000 22.605957 -8.954925 -2.523112 67.571866 1.434612 -7.283548 26.176057 78.501895 34.412844 0.000000 0.000000 0.000000 
-0.023774 0.956094 -0.064477 -0.111754 6.244110 7.242905 1.321150 -0.394347 -4.438330 0.961299 0.170994 -6.564581 -0.765861 6.015394 17.270965 0.000000 0.000000 0.000000 -2.808730 0.433757 -4.674512 3.973779 -0.480663 -2.653720 -8.609880 -20.122886 15.928694 0.000000 0.000000 0.000000 6.485009 -0.246356 0.219679 -4.406401 1.648036 -26.486372 -0.715548 11.867823 24.793446 8.083313 0.125863 -30.094591 0.000000 0.000000 0.000000 -10.666473 -3.885468 -1.335625 -66.489383 -13.304479 -3.888325 109.609147 -78.302535 -98.049552 0.000000 0.000000 0.000000 22.006280 -8.600762 -2.264372 68.077713 1.901912 -6.881271 36.502365 80.819013 45.117434 0.000000 0.000000 0.000000 
-0.024535 0.956053 -0.065644 -0.052297 6.703760 6.866140 1.374515 -0.365269 -4.086559 0.874719 0.177800 -6.692646 -1.032303 5.694967 17.262916 0.000000 0.000000 0.000000 -2.827365 0.364588 -3.799727 4.067397 -0.499034 -3.508069 -8.762747 -20.325226 16.142059 0.000000 0.000000 0.000000 6.616657 -0.231296 0.077306 -4.713959 1.732899 -26.034635 -0.849710 11.661431 24.601075 8.266852 0.024709 -29.959982 0.000000 0.000000 0.000000 -10.042739 -4.532914 -0.927809 -66.321206 -14.468688 -3.262844 115.996877 -74.810343 -101.402592 0.000000 0.000000 0.000000 21.057504 -7.531065 -1.615180 68.824397 3.027827 -6.087943 47.963005 83.017964 57.534017 0.000000 0.000000 0.000000 
-0.025219 0.956054 -0.066516 -0.010369 7.160986 6.362001 1.305414 -0.321168 -3.557816 1.025718 0.176778 -6.853298 -1.301604 5.369054 17.243971 0.000000 0.000000 0.000000 -3.053506 0.322034 -3.337253 4.545295 -0.548763 -3.355625 -8.958465 -20.611405 16.164888 0.000000 0.000000 0.000000 6.341277 -0.223154 0.201718 -4.616354 1.732585 -25.712993 -0.686393 11.757772 24.449561 8.414752 -0.024086 -29.753984 0.000000 0.000000 0.000000 -9.936986 -5.481100 -0.564855 -65.509992 -15.633659 -2.558380 119.883985 -72.557397 -103.682425 0.000000 0.000000 0.000000 21.018895 -6.278769 -0.739635 68.685149 4.609390 -5.189776 65.894026 85.537080 77.460023 0.000000 0.000000 0.000000 
-0.025744 0.956098 -0.067080 0.035146 7.721929 5.915383 0.939754 -0.264135 -2.919900 1.687539 0.170136 -7.304110 -1.646951 4.977859 17.303044 0.000000 0.000000 0.000000 -3.335469 0.256261 -2.546993 5.121458 -0.610127 -3.837632 -9.151313 -20.873295 16.371170 0.000000 0.000000 0.000000 6.453321 -0.236531 0.377655 -4.802408 1.784295 -25.616442 -0.679485 11.734155 24.557699 8.659205 -0.086771 -29.904886 0.000000 0.000000 0.000000 -9.088208 -5.963964 -0.216514 -66.174359 -16.708015 -2.164238 121.752629 -71.144280 -104.409462 0.000000 0.000000 0.000000 20.552580 -5.352848 -0.114216 69.388646 6.642492 -3.888324 83.690841 85.903014 95.911995 0.000000 0.000000 0.000000 
-0.026108 0.956243 -0.067267 0.305193 8.769117 5.915876 0.757550 -0.241941 -2.694815 1.643123 0.191707 -7.901627 -2.290004 4.293305 17.538606 0.000000 0.000000 0.000000 -3.559053 0.197874 -1.847057 5.245617 -0.632986 -4.824159 -9.616423 -21.508047 16.874438 0.000000 0.000000 0.000000 6.224820 -0.209226 0.152398 -4.704467 1.774254 -25.684846 -0.523452 12.064251 24.444691 8.575728 0.159963 -30.296981 0.000000 0.000000 0.000000 -8.746010 -7.033938 0.145719 -65.104679 -18.077925 -1.438034 123.188780 -70.412352 -105.989497 0.000000 0.000000 0.000000 20.102768 -4.502015 0.592641 69.854227 8.521443 -2.554691 99.483652 86.486905 113.086353 0.000000 0.000000 0.000000 
